<?xml version="1.0" standalone="no"?>
<!DOCTYPE svg PUBLIC "-//W3C//DTD SVG 20010904//EN"
 "http://www.w3.org/TR/2001/REC-SVG-20010904/DTD/svg10.dtd">
<svg version="1.0" xmlns="http://www.w3.org/2000/svg"
 width="80.000000pt" height="80.000000pt" viewBox="0 0 80.000000 80.000000"
 preserveAspectRatio="xMidYMid meet">
<metadata>
Created by potrace 1.14, written by Peter Selinger 2001-2017
</metadata>
<g transform="translate(0.000000,80.000000) scale(0.100000,-0.100000)"
fill="#000000" stroke="none">
<path d="M130 650 c-19 -19 -20 -33 -20 -220 0 -187 1 -201 20 -220 19 -19 31
-20 258 -18 l237 3 59 116 c37 71 57 122 53 132 -6 15 -32 17 -247 17 l-240 0
-45 -87 -44 -88 2 165 2 165 73 3 c72 3 75 2 117 -33 43 -34 45 -35 134 -35
90 0 91 0 91 -25 0 -20 5 -25 25 -25 22 0 25 4 25 33 0 55 -23 67 -125 67 -86
0 -88 1 -126 35 -39 35 -40 35 -134 35 -82 0 -98 -3 -115 -20z"/>
</g>
</svg>
